<?xml version="1.0" encoding="UTF-8"?>
<svg xmlns="http://www.w3.org/2000/svg" xmlns:xlink="http://www.w3.org/1999/xlink" width="129px" height="41px" viewBox="0 0 130 41" version="1.1">
<defs>
<linearGradient id="linear0" gradientUnits="userSpaceOnUse" x1="43.5072" y1="20.2484" x2="15.8376" y2="20.2484" >
<stop offset="0" style="stop-color:rgb(96.862745%,57.647059%,11.764706%);stop-opacity:1;"/>
<stop offset="0.2015" style="stop-color:rgb(97.254902%,61.960784%,16.078431%);stop-opacity:1;"/>
<stop offset="0.4348" style="stop-color:rgb(98.431373%,69.019608%,23.137255%);stop-opacity:1;"/>
<stop offset="0.4403" style="stop-color:rgb(96.862745%,69.019608%,24.313725%);stop-opacity:1;"/>
<stop offset="0.5147" style="stop-color:rgb(75.686275%,68.627451%,41.176471%);stop-opacity:1;"/>
<stop offset="0.5899" style="stop-color:rgb(57.254902%,68.235294%,55.686275%);stop-opacity:1;"/>
<stop offset="0.6643" style="stop-color:rgb(42.352941%,67.843137%,67.45098%);stop-opacity:1;"/>
<stop offset="0.7379" style="stop-color:rgb(30.980392%,67.45098%,76.862745%);stop-opacity:1;"/>
<stop offset="0.8104" style="stop-color:rgb(22.745098%,67.058824%,83.529412%);stop-opacity:1;"/>
<stop offset="0.8813" style="stop-color:rgb(17.647059%,67.058824%,87.45098%);stop-opacity:1;"/>
<stop offset="0.9488" style="stop-color:rgb(16.078431%,67.058824%,88.627451%);stop-opacity:1;"/>
</linearGradient>
<linearGradient id="linear1" gradientUnits="userSpaceOnUse" x1="61.7397" y1="21.8281" x2="35.4954" y2="21.8281" >
<stop offset="0" style="stop-color:rgb(96.862745%,57.647059%,11.764706%);stop-opacity:1;"/>
<stop offset="0.2015" style="stop-color:rgb(97.254902%,61.960784%,16.078431%);stop-opacity:1;"/>
<stop offset="0.4348" style="stop-color:rgb(98.431373%,69.019608%,23.137255%);stop-opacity:1;"/>
<stop offset="0.4403" style="stop-color:rgb(96.862745%,69.019608%,24.313725%);stop-opacity:1;"/>
<stop offset="0.5147" style="stop-color:rgb(75.686275%,68.627451%,41.176471%);stop-opacity:1;"/>
<stop offset="0.5899" style="stop-color:rgb(57.254902%,68.235294%,55.686275%);stop-opacity:1;"/>
<stop offset="0.6643" style="stop-color:rgb(42.352941%,67.843137%,67.45098%);stop-opacity:1;"/>
<stop offset="0.7379" style="stop-color:rgb(30.980392%,67.45098%,76.862745%);stop-opacity:1;"/>
<stop offset="0.8104" style="stop-color:rgb(22.745098%,67.058824%,83.529412%);stop-opacity:1;"/>
<stop offset="0.8813" style="stop-color:rgb(17.647059%,67.058824%,87.45098%);stop-opacity:1;"/>
<stop offset="0.9488" style="stop-color:rgb(16.078431%,67.058824%,88.627451%);stop-opacity:1;"/>
</linearGradient>
</defs>
<g id="surface1">
<path style="fill:none;stroke-width:3;stroke-linecap:butt;stroke-linejoin:miter;stroke:url(#linear0);stroke-miterlimit:10;" d="M 42 20.25 C 42 14.847656 36.480469 10.46875 29.671875 10.46875 C 22.859375 10.46875 17.339844 14.847656 17.339844 20.25 C 17.339844 25.652344 22.859375 30.03125 29.671875 30.03125 C 36.480469 30.03125 42 25.652344 42 20.25 Z M 42 20.25 "/>
<path style="fill:none;stroke-width:3;stroke-linecap:butt;stroke-linejoin:miter;stroke:url(#linear1);stroke-miterlimit:10;" d="M 60.238281 21.828125 C 60.238281 18.019531 55.039062 14.929688 48.621094 14.929688 C 42.203125 14.929688 37 18.019531 37 21.828125 C 37 25.640625 42.203125 28.730469 48.621094 28.730469 C 55.039062 28.730469 60.238281 25.640625 60.238281 21.828125 Z M 60.238281 21.828125 "/>
<path style="fill-rule:nonzero;fill:rgb(100%,100%,100%);fill-opacity:1;stroke-width:0.75;stroke-linecap:butt;stroke-linejoin:miter;stroke:rgb(0%,0%,0%);stroke-opacity:1;stroke-miterlimit:10;" d="M 67.640625 11 L 78.761719 11 L 78.761719 13.238281 L 70.300781 13.238281 L 70.300781 20.101562 L 78.109375 20.101562 L 78.109375 22.308594 L 70.300781 22.308594 L 70.300781 31.660156 L 67.628906 31.660156 L 67.628906 11 Z M 67.640625 11 "/>
<path style="fill-rule:nonzero;fill:rgb(100%,100%,100%);fill-opacity:1;stroke-width:0.75;stroke-linecap:butt;stroke-linejoin:miter;stroke:rgb(0%,0%,0%);stroke-opacity:1;stroke-miterlimit:10;" d="M 92.609375 11 L 92.609375 31.648438 L 89.941406 31.648438 L 89.941406 11 Z M 92.609375 11 "/>
<path style="fill-rule:nonzero;fill:rgb(100%,100%,100%);fill-opacity:1;stroke-width:0.75;stroke-linecap:butt;stroke-linejoin:miter;stroke:rgb(0%,0%,0%);stroke-opacity:1;stroke-miterlimit:10;" d="M 119.199219 31.238281 C 118 31.671875 115.648438 32.371094 112.859375 32.371094 C 109.730469 32.371094 107.160156 31.570312 105.140625 29.640625 C 103.359375 27.921875 102.261719 25.171875 102.261719 21.949219 C 102.289062 15.789062 106.519531 11.289062 113.449219 11.289062 C 115.839844 11.289062 117.710938 11.808594 118.601562 12.238281 L 117.960938 14.421875 C 116.859375 13.929688 115.480469 13.53125 113.390625 13.53125 C 108.359375 13.53125 105.089844 16.660156 105.089844 21.828125 C 105.089844 27.070312 108.25 30.171875 113.058594 30.171875 C 114.808594 30.171875 116 29.921875 116.609375 29.621094 L 116.609375 23.460938 L 112.410156 23.460938 L 112.410156 21.308594 L 119.210938 21.308594 L 119.210938 31.238281 Z M 119.199219 31.238281 "/>
</g>
</svg>
